{
  "accessors": [
    {
      "bufferView": 1,
      "componentType": 5126,
      "count": 15264,
      "max": [
        351.1133728027344,
        344.8384094238281,
        342.9977111816406
      ],
      "min": [
        -342.1217956542969,
        -338.77252197265625,
        -340.61322021484375
      ],
      "type": "VEC3"
    },
    {
      "bufferView": 1,
      "byteOffset": 183168,
      "componentType": 5126,
      "count": 15264,
      "max": [
        1.0,
        0.9992790818214417,
        0.9992790818214417
      ],
      "min": [
        -1.0,
        -0.9992790818214417,
        -0.9992790818214417
      ],
      "type": "VEC3"
    },
    {
      "bufferView": 0,
      "componentType": 5125,
      "count": 76032,
      "type": "SCALAR"
    },
    {
      "bufferView": 1,
      "byteOffset": 366336,
      "componentType": 5126,
      "count": 528,
      "max": [
        327.8877868652344,
        337.8328857421875,
        335.9921875
      ],
      "min": [
        -318.8962097167969,
        -331.7669982910156,
        -333.6076965332031
      ],
      "type": "VEC3"
    },
    {
      "bufferView": 0,
      "byteOffset": 304128,
      "componentType": 5125,
      "count": 960,
      "type": "SCALAR"
    }
  ],
  "asset": {
    "extras": {
      "author": "Tahsin Ridwan Pulok (https://sketchfab.com/tahsinpulok)",
      "license": "CC-BY-NC-ND-4.0 (http://creativecommons.org/licenses/by-nc-nd/4.0/)",
      "source": "https://sketchfab.com/3d-models/abstract-geometric-sphere-3464833d7d13489c8143917d4ce29356",
      "title": "Abstract Geometric Sphere"
    },
    "generator": "Sketchfab-13.30.0",
    "version": "2.0"
  },
  "bufferViews": [
    {
      "buffer": 0,
      "byteLength": 307968,
      "name": "floatBufferViews",
      "target": 34963
    },
    {
      "buffer": 0,
      "byteLength": 372672,
      "byteOffset": 307968,
      "byteStride": 12,
      "name": "floatBufferViews",
      "target": 34962
    }
  ],
  "buffers": [
    {
      "byteLength": 680640,
      "uri": "scene.bin"
    }
  ],
  "materials": [
    {
      "name": "material",
      "pbrMetallicRoughness": {
        "metallicFactor": 0.0,
        "roughnessFactor": 0.6
      }
    },
    {
      "name": "edge_color000255",
      "pbrMetallicRoughness": {
        "metallicFactor": 0.0,
        "roughnessFactor": 0.6
      }
    }
  ],
  "meshes": [
    {
      "name": "Material2",
      "primitives": [
        {
          "attributes": {
            "NORMAL": 1,
            "POSITION": 0
          },
          "indices": 2,
          "material": 0,
          "mode": 4
        }
      ]
    },
    {
      "name": "Material2",
      "primitives": [
        {
          "attributes": {
            "POSITION": 3
          },
          "indices": 4,
          "material": 1,
          "mode": 1
        }
      ]
    }
  ],
  "nodes": [
    {
      "children": [
        1
      ],
      "matrix": [
        1.0,
        0.0,
        0.0,
        0.0,
        0.0,
        2.220446049250313e-16,
        -1.0,
        0.0,
        0.0,
        1.0,
        2.220446049250313e-16,
        0.0,
        0.0,
        0.0,
        0.0,
        1.0
      ],
      "name": "Sketchfab_model"
    },
    {
      "children": [
        2,
        3,
        4
      ],
      "name": "Collada visual scene group"
    },
    {
      "mesh": 0,
      "name": "Material2"
    },
    {
      "mesh": 1,
      "name": "Material2"
    },
    {
      "children": [
        5
      ],
      "name": "SketchUp"
    },
    {
      "children": [
        6
      ],
      "matrix": [
        0.8119252,
        0.5837615,
        -5.551115e-17,
        0.0,
        -0.2248638,
        0.3127521,
        0.9228339,
        0.0,
        0.5387149,
        -0.7492721,
        0.3851981,
        0.0,
        793.8768,
        -1457.538,
        588.8506,
        1.0
      ],
      "name": "skp_camera_Last_Saved_SketchUp_View"
    },
    {
      "name": "ID1"
    }
  ],
  "scene": 0,
  "scenes": [
    {
      "name": "Sketchfab_Scene",
      "nodes": [
        0
      ]
    }
  ]
}
